<svg width="179" height="31" viewBox="0 0 179 31" fill="none" xmlns="http://www.w3.org/2000/svg">
<path d="M13.0251 17.4737V29.6383C13.0251 30.2549 12.2716 30.5191 11.9047 30.0317L9.97388 27.4567C9.65255 27.028 9.21178 26.708 8.71129 26.5377L2.55476 24.1652C2.17939 24.0214 1.932 23.6455 1.93484 23.2315L2.05996 13.6097C2.06849 12.9109 2.7595 12.447 3.38226 12.72L12.5332 16.7338C12.8289 16.8542 13.0223 17.1478 13.0223 17.4737H13.0251Z" fill="#013555"/>
<path d="M16.106 17.4737V29.6383C16.106 30.2549 16.8595 30.5191 17.2264 30.0317L19.1572 27.4567C19.4785 27.028 19.9193 26.708 20.4198 26.5377L26.5763 24.1652C26.9517 24.0214 27.1991 23.6455 27.1963 23.2315L27.0711 13.6097C27.0626 12.9109 26.3716 12.447 25.7488 12.72L16.5979 16.7338C16.3022 16.8542 16.1088 17.1478 16.1088 17.4737H16.106Z" fill="#013555"/>
<path d="M15.986 14.2404L29.3171 8.00984C29.6527 7.85716 29.6527 7.36388 29.3171 7.2112L16.0457 0.983578C15.1983 0.631237 14.2542 0.625365 13.404 0.965961L0.237803 7.23175C-0.0806878 7.38737 -0.0778442 7.85422 0.237803 8.0069L13.4808 14.2022C14.2827 14.5252 15.1699 14.5369 15.9832 14.2404H15.986Z" fill="#013555"/>
<path d="M41.1363 6.65569V13.4419H49.1201V16.5356H41.1363V23.6211H50.118V26.7148H37.344V3.56199H50.118V6.65569H41.1363ZM53.5249 17.467C53.5249 15.6263 53.9019 13.9963 54.6559 12.577C55.4321 11.1576 56.4744 10.0599 57.7829 9.28367C59.1135 8.4853 60.5883 8.08612 62.2072 8.08612C63.4048 8.08612 64.5802 8.35224 65.7334 8.88449C66.9087 9.39456 67.8402 10.082 68.5277 10.947V2.09831H72.3532V26.7148H68.5277V23.9538C67.9067 24.8409 67.0418 25.5727 65.933 26.1493C64.8463 26.7259 63.5933 27.0142 62.1739 27.0142C60.5772 27.0142 59.1135 26.615 57.7829 25.8167C56.4744 24.9961 55.4321 23.8651 54.6559 22.4236C53.9019 20.9599 53.5249 19.3077 53.5249 17.467ZM68.5277 17.5335C68.5277 16.2694 68.2615 15.1717 67.7293 14.2402C67.2192 13.3088 66.5428 12.5991 65.7001 12.1113C64.8574 11.6234 63.9481 11.3794 62.9723 11.3794C61.9965 11.3794 61.0873 11.6234 60.2445 12.1113C59.4018 12.577 58.7143 13.2755 58.1821 14.207C57.672 15.1162 57.417 16.2029 57.417 17.467C57.417 18.7311 57.672 19.84 58.1821 20.7936C58.7143 21.7472 59.4018 22.479 60.2445 22.9891C61.1094 23.477 62.0187 23.7209 62.9723 23.7209C63.9481 23.7209 64.8574 23.477 65.7001 22.9891C66.5428 22.5012 67.2192 21.7915 67.7293 20.8601C68.2615 19.9065 68.5277 18.7976 68.5277 17.5335ZM84.4198 23.3218L89.6092 8.38551H93.6344L86.6486 26.7148H82.1245L75.172 8.38551H79.2304L84.4198 23.3218ZM95.2368 17.467C95.2368 15.6263 95.6138 13.9963 96.3678 12.577C97.144 11.1576 98.1864 10.0599 99.4948 9.28367C100.825 8.4853 102.289 8.08612 103.886 8.08612C105.327 8.08612 106.58 8.37442 107.645 8.95102C108.732 9.50545 109.596 10.204 110.24 11.0468V8.38551H114.065V26.7148H110.24V23.9871C109.596 24.852 108.72 25.5727 107.612 26.1493C106.503 26.7259 105.239 27.0142 103.819 27.0142C102.245 27.0142 100.803 26.615 99.4948 25.8167C98.1864 24.9961 97.144 23.8651 96.3678 22.4236C95.6138 20.9599 95.2368 19.3077 95.2368 17.467ZM110.24 17.5335C110.24 16.2694 109.973 15.1717 109.441 14.2402C108.931 13.3088 108.255 12.5991 107.412 12.1113C106.569 11.6234 105.66 11.3794 104.684 11.3794C103.708 11.3794 102.799 11.6234 101.956 12.1113C101.114 12.577 100.426 13.2755 99.894 14.207C99.3839 15.1162 99.1289 16.2029 99.1289 17.467C99.1289 18.7311 99.3839 19.84 99.894 20.7936C100.426 21.7472 101.114 22.479 101.956 22.9891C102.821 23.477 103.731 23.7209 104.684 23.7209C105.66 23.7209 106.569 23.477 107.412 22.9891C108.255 22.5012 108.931 21.7915 109.441 20.8601C109.973 19.9065 110.24 18.7976 110.24 17.5335ZM128.294 8.08612C129.735 8.08612 131.022 8.3855 132.153 8.98428C133.306 9.58307 134.204 10.4701 134.847 11.6455C135.49 12.8209 135.812 14.2402 135.812 15.9035V26.7148H132.053V16.469C132.053 14.8279 131.643 13.5749 130.822 12.71C130.002 11.8229 128.882 11.3794 127.462 11.3794C126.043 11.3794 124.912 11.8229 124.069 12.71C123.249 13.5749 122.838 14.8279 122.838 16.469V26.7148H119.046V8.38551H122.838V10.4812C123.459 9.72722 124.247 9.13952 125.2 8.71816C126.176 8.2968 127.207 8.08612 128.294 8.08612ZM139.385 17.5335C139.385 15.6485 139.762 13.9963 140.516 12.577C141.292 11.1355 142.357 10.0266 143.71 9.25041C145.063 8.47421 146.615 8.08612 148.367 8.08612C150.585 8.08612 152.414 8.61836 153.856 9.68286C155.319 10.7252 156.306 12.2221 156.816 14.1737H152.725C152.392 13.2645 151.86 12.5548 151.128 12.0447C150.396 11.5346 149.476 11.2796 148.367 11.2796C146.814 11.2796 145.573 11.834 144.641 12.9429C143.732 14.0296 143.277 15.5598 143.277 17.5335C143.277 19.5073 143.732 21.0486 144.641 22.1575C145.573 23.2663 146.814 23.8207 148.367 23.8207C150.562 23.8207 152.015 22.856 152.725 20.9266H156.816C156.284 22.7895 155.286 24.2754 153.822 25.3842C152.359 26.4709 150.54 27.0142 148.367 27.0142C146.615 27.0142 145.063 26.6261 143.71 25.8499C142.357 25.0516 141.292 23.9427 140.516 22.5234C139.762 21.0819 139.385 19.4186 139.385 17.5335ZM177.395 17.1011C177.395 17.7886 177.35 18.4095 177.262 18.964H163.257C163.368 20.4276 163.911 21.603 164.887 22.4901C165.863 23.3772 167.06 23.8207 168.48 23.8207C170.52 23.8207 171.961 22.9669 172.804 21.2593H176.896C176.341 22.9447 175.332 24.3308 173.869 25.4175C172.427 26.482 170.631 27.0142 168.48 27.0142C166.728 27.0142 165.153 26.6261 163.756 25.8499C162.381 25.0516 161.294 23.9427 160.496 22.5234C159.72 21.0819 159.332 19.4186 159.332 17.5335C159.332 15.6485 159.709 13.9963 160.463 12.577C161.239 11.1355 162.314 10.0266 163.689 9.25041C165.086 8.47421 166.683 8.08612 168.48 8.08612C170.209 8.08612 171.751 8.46312 173.103 9.21714C174.456 9.97116 175.51 11.0357 176.264 12.4106C177.018 13.7634 177.395 15.3269 177.395 17.1011ZM173.436 15.9035C173.414 14.5064 172.915 13.3864 171.939 12.5437C170.963 11.701 169.755 11.2796 168.313 11.2796C167.005 11.2796 165.885 11.701 164.953 12.5437C164.022 13.3643 163.468 14.4842 163.29 15.9035H173.436Z" fill="#013555"/>
</svg>
