<svg width="126" height="25" viewBox="0 0 126 25" fill="none" xmlns="http://www.w3.org/2000/svg">
<path fill-rule="evenodd" clip-rule="evenodd" d="M32.1697 2.83158C32.0234 1.67805 30.9123 0.602154 30.4046 0.110575C30.3622 0.0695484 30.324 0.0325919 30.291 0C34.3509 1.65989 34.2518 4.68675 33.7567 7.12777C33.5054 8.36699 32.794 9.48878 31.9989 10.4548C32.898 11.2267 34.2741 12.6165 34.7469 15.1343C35.2421 17.7706 35.044 19.6258 33.8558 21.188C32.6675 22.7503 30.291 23.7267 27.5184 22.9456C25.1643 22.2823 24.1186 21.5581 23.0625 20.7975C22.8747 20.6622 22.0403 19.9745 21.8958 19.8763L22.1733 19.6584C22.1019 19.7158 22.0299 19.7701 21.9662 19.821C21.7577 19.9752 21.4227 20.2267 21.1017 20.4646L21.099 20.4666C20.8112 20.68 20.5385 20.8821 20.3889 20.9927C20.072 21.2271 17.7153 22.7991 16.428 23.4338C15.3058 23.9871 12.3088 25.0741 9.29851 24.996C5.53571 24.8984 2.76039 22.9456 1.07703 20.4069C-0.606328 17.8682 -0.0885416 13.7673 1.07703 12.1074C1.96831 10.8382 3.94864 8.98294 7.41439 8.8853C10.187 8.80719 12.6625 10.415 13.5537 11.2287L21.7725 17.1848C22.0695 16.9895 22.7627 16.5208 23.1587 16.2083C23.5548 15.8959 25.1062 14.581 25.8323 13.9626L28.4069 11.5216C28.1428 11.3589 27.3969 10.9943 26.5255 10.8381C25.6541 10.6819 24.248 11.0334 23.6539 11.2287C23.9509 10.8381 24.9213 9.93982 26.4265 9.47114C27.9316 9.00247 29.4961 9.34096 30.0902 9.56878C30.2039 9.40068 30.4067 9.13208 30.5826 8.8991C30.7132 8.7261 30.8289 8.57274 30.8824 8.49474C31.0832 8.20181 31.7037 7.12249 31.9744 6.15136C32.3233 4.89914 32.3281 4.08138 32.1697 2.83158ZM23.6095 18.4887C24.6555 19.1852 26.8595 20.5878 27.7164 20.8951C28.8057 21.2857 30.489 21.2857 31.1822 19.6258C31.8753 17.9659 31.4792 16.0131 31.1822 15.1343C30.9445 14.4313 30.159 13.2791 29.7959 12.7909L29.8169 12.7663C29.8089 12.7745 29.801 12.7827 29.7932 12.7909L27.0206 15.5249C26.2878 16.2474 24.8518 17.4645 23.6095 18.4887ZM10.0908 11.9121C10.982 12.3028 19.8939 18.5517 19.8939 18.5517C19.8939 18.5517 12.5312 23.6089 7.41439 20.9927C4.74079 19.6258 2.76328 15.6225 4.7437 13.2792C6.72412 10.9358 9.19965 11.5215 10.0908 11.9121Z" fill="#165CE2"/>
<ellipse cx="27.9143" cy="4.78473" rx="2.67357" ry="2.6363" fill="#165CE2"/>
<path d="M113.547 7.38086C114.049 7.38086 114.462 7.57722 114.783 7.96993L125.067 20.0319C125.288 20.275 125.399 20.5555 125.399 20.8734C125.399 21.2474 125.238 21.5747 124.916 21.8552C124.595 22.1357 124.243 22.2759 123.861 22.2759C123.378 22.2759 122.966 22.0796 122.624 21.6869L112.341 9.62494C112.119 9.38183 112.009 9.10132 112.009 8.78341C112.009 8.39069 112.16 8.06343 112.461 7.80163C112.783 7.52111 113.145 7.38086 113.547 7.38086ZM113.577 22.2759C113.235 22.2759 112.903 22.1544 112.582 21.9113C112.26 21.6682 112.099 21.3689 112.099 21.0136C112.099 20.6957 112.22 20.4059 112.461 20.1441L117.256 14.618L118.794 16.9182L114.783 21.6869C114.462 22.0796 114.06 22.2759 113.577 22.2759ZM123.831 7.38086C124.253 7.38086 124.595 7.51176 124.856 7.77357C125.137 8.01668 125.278 8.30654 125.278 8.64315C125.278 8.79276 125.248 8.95171 125.188 9.12002C125.148 9.26963 125.057 9.40988 124.916 9.54079L120.182 15.0668L118.613 12.9911L122.624 8.02603C122.966 7.59592 123.368 7.38086 123.831 7.38086Z" fill="#165CE2"/>
<path d="M109.43 20.7892C109.43 21.2007 109.289 21.5466 109.008 21.8271C108.726 22.0889 108.365 22.2198 107.922 22.2198C107.5 22.2198 107.138 22.0889 106.837 21.8271C106.555 21.5466 106.414 21.2007 106.414 20.7892V8.78342C106.414 8.37201 106.555 8.03539 106.837 7.77358C107.138 7.49307 107.5 7.35282 107.922 7.35282C108.365 7.35282 108.726 7.49307 109.008 7.77358C109.289 8.03539 109.43 8.37201 109.43 8.78342V20.7892ZM107.892 5.50146C107.309 5.50146 106.887 5.40795 106.625 5.22095C106.364 5.01524 106.233 4.67863 106.233 4.21111V3.76229C106.233 3.29478 106.374 2.96752 106.656 2.78051C106.937 2.5935 107.359 2.5 107.922 2.5C108.525 2.5 108.958 2.60285 109.219 2.80856C109.48 2.99557 109.611 3.31348 109.611 3.76229V4.21111C109.611 4.69733 109.47 5.03394 109.189 5.22095C108.927 5.40795 108.495 5.50146 107.892 5.50146Z" fill="#165CE2"/>
<path d="M96.9794 7.12891C98.4069 7.12891 99.5127 7.40942 100.297 7.97044C101.081 8.51276 101.624 9.25143 101.925 10.1865C102.247 11.1028 102.408 12.1313 102.408 13.2721V20.7897C102.408 21.2011 102.257 21.5471 101.955 21.8276C101.674 22.0894 101.322 22.2203 100.9 22.2203C100.458 22.2203 100.096 22.0894 99.8142 21.8276C99.5328 21.5471 99.392 21.2011 99.392 20.7897V13.3001C99.392 12.6269 99.2915 12.0285 99.0905 11.5049C98.8894 10.9625 98.5376 10.5324 98.0349 10.2145C97.5524 9.8779 96.8688 9.7096 95.9842 9.7096C95.1599 9.7096 94.4361 9.8779 93.8128 10.2145C93.1896 10.5324 92.697 10.9625 92.3351 11.5049C91.9933 12.0285 91.8224 12.6269 91.8224 13.3001V20.7897C91.8224 21.2011 91.6716 21.5471 91.3701 21.8276C91.0886 22.0894 90.7367 22.2203 90.3145 22.2203C89.8722 22.2203 89.5103 22.0894 89.2289 21.8276C88.9474 21.5471 88.8066 21.2011 88.8066 20.7897V8.89612C88.8066 8.4847 88.9474 8.14809 89.2289 7.88628C89.5103 7.60577 89.8722 7.46552 90.3145 7.46552C90.7367 7.46552 91.0886 7.60577 91.3701 7.88628C91.6716 8.14809 91.8224 8.4847 91.8224 8.89612V10.467L91.2796 10.7475C91.4203 10.3361 91.6616 9.92465 92.0034 9.51324C92.3653 9.08313 92.7975 8.69041 93.3002 8.3351C93.8028 7.96109 94.3657 7.67123 94.989 7.46552C95.6123 7.24111 96.2757 7.12891 96.9794 7.12891Z" fill="#165CE2"/>
<path d="M78.6419 22.5008C76.9732 22.5008 75.5256 22.1829 74.2992 21.5471C73.0727 20.8926 72.1177 20.0043 71.4342 18.8823C70.7707 17.7415 70.439 16.4418 70.439 14.9832C70.439 13.3375 70.7908 11.935 71.4945 10.7755C72.2183 9.59739 73.1532 8.69976 74.2992 8.08264C75.4452 7.44682 76.6615 7.12891 77.9483 7.12891C78.9334 7.12891 79.8683 7.31591 80.7529 7.68993C81.6376 8.04524 82.4217 8.55016 83.1052 9.20468C83.8089 9.8405 84.3618 10.5979 84.7639 11.4768C85.166 12.337 85.3771 13.2814 85.3972 14.31C85.3771 14.684 85.2163 14.9925 84.9147 15.2356C84.6131 15.4787 84.2613 15.6003 83.8592 15.6003H72.1278L71.404 13.216H82.7434L82.1704 13.7209V13.0196C82.1301 12.3651 81.8989 11.7947 81.4767 11.3085C81.0545 10.8036 80.5318 10.4202 79.9085 10.1584C79.2853 9.8779 78.6318 9.73765 77.9483 9.73765C77.3451 9.73765 76.7621 9.83115 76.1991 10.0182C75.6563 10.1865 75.1637 10.467 74.7214 10.8597C74.2992 11.2524 73.9574 11.776 73.696 12.4305C73.4547 13.0664 73.3341 13.8611 73.3341 14.8149C73.3341 15.8434 73.5653 16.741 74.0277 17.5078C74.4902 18.2745 75.1134 18.8729 75.8975 19.303C76.6816 19.7144 77.5462 19.9202 78.4911 19.9202C79.235 19.9202 79.8482 19.8547 80.3307 19.7238C80.8133 19.5742 81.2154 19.3965 81.537 19.1908C81.8587 18.9851 82.1402 18.7888 82.3815 18.6018C82.683 18.4335 82.9846 18.3493 83.2862 18.3493C83.6481 18.3493 83.9497 18.4709 84.1909 18.714C84.4322 18.9384 84.5528 19.2095 84.5528 19.5274C84.5528 19.9389 84.3317 20.3129 83.8893 20.6495C83.3465 21.1357 82.5926 21.5658 81.6275 21.9398C80.6826 22.3138 79.6874 22.5008 78.6419 22.5008Z" fill="#165CE2"/>
<path d="M66.471 2.58203C66.853 2.58203 67.2148 2.71294 67.5566 2.97474C67.9185 3.21785 68.0995 3.54512 68.0995 3.95653C68.0995 4.25574 67.9889 4.55495 67.7677 4.85416L55.4935 19.6931L55.2221 19.5248H66.2598C66.6821 19.5248 67.0339 19.6464 67.3154 19.8895C67.6169 20.1326 67.7677 20.4599 67.7677 20.8713C67.7677 21.2453 67.6169 21.5632 67.3154 21.825C67.0339 22.0868 66.6821 22.2177 66.2598 22.2177H52.5984C52.156 22.2177 51.7741 22.0775 51.4524 21.797C51.1508 21.4977 51 21.1705 51 20.8152C51 20.516 51.1206 20.2261 51.3619 19.9456L63.6361 5.10662L63.8774 5.27493H53.6539C53.2317 5.27493 52.8698 5.15337 52.5682 4.91026C52.2867 4.64845 52.146 4.31184 52.146 3.90043C52.146 3.50771 52.2867 3.1898 52.5682 2.94669C52.8698 2.70359 53.2317 2.58203 53.6539 2.58203H66.471Z" fill="#165CE2"/>
</svg>
