<svg width="104" height="29" viewBox="0 0 104 29" fill="none" xmlns="http://www.w3.org/2000/svg">
<path fill-rule="evenodd" clip-rule="evenodd" d="M0.276929 24.726L11.9706 1.28901C12.0891 0.82617 12.4051 0.417103 12.8785 0.186438C13.1278 0.0650131 13.3939 0.00603932 13.658 0.00342456C13.9451 -0.0140324 14.2388 0.0348725 14.5149 0.158845C14.9926 0.373375 15.3206 0.769262 15.4556 1.2252L21.6535 12.6759L26.1106 10.2093L26.1283 10.1996C26.3948 10.0394 26.707 9.94726 27.0406 9.94726C27.7154 9.94726 28.3022 10.3242 28.602 10.8789C28.8325 11.2635 28.8963 11.6946 28.8142 12.0935V26.0788C28.9478 26.7908 28.6129 27.5225 27.9359 27.8804C27.6731 28.0344 27.3672 28.1226 27.0406 28.1226C26.345 28.1226 25.7429 27.7222 25.4523 27.1392L25.4442 27.1244L20.2394 17.5084L2.7378 27.1942C2.03028 27.5858 1.1499 27.4551 0.575608 26.9282C0.335616 26.716 0.165445 26.4449 0.0770503 26.1482C-0.0758018 25.6598 0.00281403 25.1402 0.276929 24.726ZM13.7869 5.58718L5.90015 21.3942L18.5526 14.392L13.7869 5.58718ZM25.267 14.726V19.352L23.3403 15.7923L25.267 14.726Z" fill="#3786A8"/>
<path d="M55.3121 22.5605L51.4721 15.8885H49.3841V22.5605H46.6481V5.88055H52.4081C53.6881 5.88055 54.7681 6.10455 55.6481 6.55255C56.5441 7.00055 57.2081 7.60055 57.6401 8.35255C58.0881 9.10455 58.3121 9.94455 58.3121 10.8725C58.3121 11.9605 57.9921 12.9525 57.3521 13.8485C56.7281 14.7285 55.7601 15.3285 54.4481 15.6485L58.5761 22.5605H55.3121ZM49.3841 13.7045H52.4081C53.4321 13.7045 54.2001 13.4485 54.7121 12.9365C55.2401 12.4245 55.5041 11.7365 55.5041 10.8725C55.5041 10.0085 55.2481 9.33655 54.7361 8.85655C54.2241 8.36055 53.4481 8.11255 52.4081 8.11255H49.3841V13.7045ZM67.5482 22.7765C66.3002 22.7765 65.1722 22.4965 64.1642 21.9365C63.1562 21.3605 62.3642 20.5605 61.7882 19.5365C61.2122 18.4965 60.9242 17.2965 60.9242 15.9365C60.9242 14.5925 61.2202 13.4005 61.8122 12.3605C62.4042 11.3205 63.2122 10.5205 64.2362 9.96055C65.2602 9.40055 66.4042 9.12055 67.6682 9.12055C68.9322 9.12055 70.0762 9.40055 71.1002 9.96055C72.1242 10.5205 72.9322 11.3205 73.5242 12.3605C74.1162 13.4005 74.4122 14.5925 74.4122 15.9365C74.4122 17.2805 74.1082 18.4725 73.5002 19.5125C72.8922 20.5525 72.0602 21.3605 71.0042 21.9365C69.9642 22.4965 68.8122 22.7765 67.5482 22.7765ZM67.5482 20.4005C68.2522 20.4005 68.9082 20.2325 69.5162 19.8965C70.1402 19.5605 70.6442 19.0565 71.0282 18.3845C71.4122 17.7125 71.6042 16.8965 71.6042 15.9365C71.6042 14.9765 71.4202 14.1685 71.0522 13.5125C70.6842 12.8405 70.1962 12.3365 69.5882 12.0005C68.9802 11.6645 68.3242 11.4965 67.6202 11.4965C66.9162 11.4965 66.2602 11.6645 65.6522 12.0005C65.0602 12.3365 64.5882 12.8405 64.2362 13.5125C63.8842 14.1685 63.7082 14.9765 63.7082 15.9365C63.7082 17.3605 64.0682 18.4645 64.7882 19.2485C65.5242 20.0165 66.4442 20.4005 67.5482 20.4005ZM82.2289 20.1125L85.9729 9.33655H88.8769L83.8369 22.5605H80.5729L75.5569 9.33655H78.4849L82.2289 20.1125ZM102.849 9.33655L94.737 28.7765H91.905L94.593 22.3445L89.385 9.33655H92.433L96.153 19.4165L100.017 9.33655H102.849Z" fill="#3786A8"/>
</svg>
