<svg width="148" height="28" viewBox="0 0 148 28" fill="none" xmlns="http://www.w3.org/2000/svg">
<path d="M12.3336 15.8675V27.3863C12.3336 27.9701 11.62 28.2204 11.2727 27.7588L9.44431 25.3205C9.14004 24.9146 8.72267 24.6115 8.24875 24.4503L2.41906 22.2038C2.06363 22.0676 1.82936 21.7117 1.83205 21.3197L1.95053 12.2086C1.95861 11.5469 2.61294 11.1077 3.20264 11.3662L11.8677 15.1669C12.1478 15.2809 12.3309 15.5589 12.3309 15.8675H12.3336Z" fill="#053BC4"/>
<path d="M15.252 15.8675V27.3863C15.252 27.9701 15.9655 28.2204 16.3129 27.7588L18.1412 25.3205C18.4455 24.9146 18.8629 24.6115 19.3368 24.4503L25.1665 22.2038C25.5219 22.0676 25.7562 21.7117 25.7535 21.3197L25.635 12.2086C25.6269 11.5469 24.9726 11.1077 24.3829 11.3662L15.7178 15.1669C15.4377 15.2809 15.2546 15.5589 15.2546 15.8675H15.252Z" fill="#053BC4"/>
<path d="M15.1373 12.8075L27.7607 6.90771C28.0785 6.76314 28.0785 6.29605 27.7607 6.15147L15.1939 0.254468C14.3915 -0.0791677 13.4975 -0.0847283 12.6924 0.237786L0.225178 6.17093C-0.0764042 6.31829 -0.0737115 6.76036 0.225178 6.90493L12.7651 12.7714C13.5244 13.0772 14.3645 13.0883 15.1347 12.8075H15.1373Z" fill="#053BC4"/>
<path d="M48.535 8.028V12.924H54.295V15.156H48.535V20.268H55.015V22.5H45.799V5.796H55.015V8.028H48.535ZM57.473 15.828C57.473 14.5 57.745 13.324 58.289 12.3C58.849 11.276 59.601 10.484 60.545 9.924C61.505 9.348 62.569 9.06 63.737 9.06C64.601 9.06 65.449 9.252 66.281 9.636C67.129 10.004 67.801 10.5 68.297 11.124V4.74H71.057V22.5H68.297V20.508C67.849 21.148 67.225 21.676 66.425 22.092C65.641 22.508 64.737 22.716 63.713 22.716C62.561 22.716 61.505 22.428 60.545 21.852C59.601 21.26 58.849 20.444 58.289 19.404C57.745 18.348 57.473 17.156 57.473 15.828ZM68.297 15.876C68.297 14.964 68.105 14.172 67.721 13.5C67.353 12.828 66.865 12.316 66.257 11.964C65.649 11.612 64.993 11.436 64.289 11.436C63.585 11.436 62.929 11.612 62.321 11.964C61.713 12.3 61.217 12.804 60.833 13.476C60.465 14.132 60.281 14.916 60.281 15.828C60.281 16.74 60.465 17.54 60.833 18.228C61.217 18.916 61.713 19.444 62.321 19.812C62.945 20.164 63.601 20.34 64.289 20.34C64.993 20.34 65.649 20.164 66.257 19.812C66.865 19.46 67.353 18.948 67.721 18.276C68.105 17.588 68.297 16.788 68.297 15.876ZM79.7626 20.052L83.5066 9.276H86.4106L81.3706 22.5H78.1066L73.0906 9.276H76.0186L79.7626 20.052ZM87.5667 15.828C87.5667 14.5 87.8387 13.324 88.3827 12.3C88.9427 11.276 89.6947 10.484 90.6387 9.924C91.5987 9.348 92.6547 9.06 93.8067 9.06C94.8467 9.06 95.7507 9.268 96.5187 9.684C97.3027 10.084 97.9267 10.588 98.3907 11.196V9.276H101.151V22.5H98.3907V20.532C97.9267 21.156 97.2947 21.676 96.4947 22.092C95.6947 22.508 94.7827 22.716 93.7587 22.716C92.6227 22.716 91.5827 22.428 90.6387 21.852C89.6947 21.26 88.9427 20.444 88.3827 19.404C87.8387 18.348 87.5667 17.156 87.5667 15.828ZM98.3907 15.876C98.3907 14.964 98.1987 14.172 97.8147 13.5C97.4467 12.828 96.9587 12.316 96.3507 11.964C95.7427 11.612 95.0867 11.436 94.3827 11.436C93.6787 11.436 93.0227 11.612 92.4147 11.964C91.8067 12.3 91.3107 12.804 90.9267 13.476C90.5587 14.132 90.3747 14.916 90.3747 15.828C90.3747 16.74 90.5587 17.54 90.9267 18.228C91.3107 18.916 91.8067 19.444 92.4147 19.812C93.0387 20.164 93.6947 20.34 94.3827 20.34C95.0867 20.34 95.7427 20.164 96.3507 19.812C96.9587 19.46 97.4467 18.948 97.8147 18.276C98.1987 17.588 98.3907 16.788 98.3907 15.876ZM111.416 9.06C112.456 9.06 113.384 9.276 114.2 9.708C115.032 10.14 115.68 10.78 116.144 11.628C116.608 12.476 116.84 13.5 116.84 14.7V22.5H114.128V15.108C114.128 13.924 113.832 13.02 113.24 12.396C112.648 11.756 111.84 11.436 110.816 11.436C109.792 11.436 108.976 11.756 108.368 12.396C107.776 13.02 107.48 13.924 107.48 15.108V22.5H104.744V9.276H107.48V10.788C107.928 10.244 108.496 9.82 109.184 9.516C109.888 9.212 110.632 9.06 111.416 9.06ZM119.418 15.876C119.418 14.516 119.69 13.324 120.234 12.3C120.794 11.26 121.562 10.46 122.538 9.9C123.514 9.34 124.634 9.06 125.898 9.06C127.498 9.06 128.818 9.444 129.858 10.212C130.914 10.964 131.626 12.044 131.994 13.452H129.042C128.802 12.796 128.418 12.284 127.89 11.916C127.362 11.548 126.698 11.364 125.898 11.364C124.778 11.364 123.882 11.764 123.21 12.564C122.554 13.348 122.226 14.452 122.226 15.876C122.226 17.3 122.554 18.412 123.21 19.212C123.882 20.012 124.778 20.412 125.898 20.412C127.482 20.412 128.53 19.716 129.042 18.324H131.994C131.61 19.668 130.89 20.74 129.834 21.54C128.778 22.324 127.466 22.716 125.898 22.716C124.634 22.716 123.514 22.436 122.538 21.876C121.562 21.3 120.794 20.5 120.234 19.476C119.69 18.436 119.418 17.236 119.418 15.876ZM146.841 15.564C146.841 16.06 146.809 16.508 146.745 16.908H136.641C136.721 17.964 137.113 18.812 137.817 19.452C138.521 20.092 139.385 20.412 140.409 20.412C141.881 20.412 142.921 19.796 143.529 18.564H146.481C146.081 19.78 145.353 20.78 144.297 21.564C143.257 22.332 141.961 22.716 140.409 22.716C139.145 22.716 138.009 22.436 137.001 21.876C136.009 21.3 135.225 20.5 134.649 19.476C134.089 18.436 133.809 17.236 133.809 15.876C133.809 14.516 134.081 13.324 134.625 12.3C135.185 11.26 135.961 10.46 136.953 9.9C137.961 9.34 139.113 9.06 140.409 9.06C141.657 9.06 142.769 9.332 143.745 9.876C144.721 10.42 145.481 11.188 146.025 12.18C146.569 13.156 146.841 14.284 146.841 15.564ZM143.985 14.7C143.969 13.692 143.609 12.884 142.905 12.276C142.201 11.668 141.329 11.364 140.289 11.364C139.345 11.364 138.537 11.668 137.865 12.276C137.193 12.868 136.793 13.676 136.665 14.7H143.985Z" fill="#053BC4"/>
</svg>
