<svg width="124" height="25" viewBox="0 0 124 25" fill="none" xmlns="http://www.w3.org/2000/svg">
<path d="M13.4889 0.465619C12.4261 -0.149269 10.683 -0.156035 9.61484 0.450585L1.98783 4.78261C0.919689 5.38923 0.042447 6.88436 0.0371441 8.10511L2.42277e-05 16.8173C-0.00527862 18.038 0.8606 19.5392 1.9242 20.1533L9.51106 24.5349C10.5747 25.1491 12.3185 25.1558 13.3867 24.55L21.0114 20.2262C22.0796 19.6204 22.9583 18.126 22.9629 16.9052L23 8.19231C23.0053 6.97155 22.1394 5.46966 21.0766 4.85478L13.4889 0.465619ZM11.411 20.6359C11.411 16.152 7.7649 12.5116 3.25673 12.4665C7.76415 12.4665 11.433 8.85906 11.4777 4.37519C11.4777 8.85906 15.1351 12.5108 19.6652 12.5326C15.1351 12.5326 11.4557 16.1513 11.411 20.6351V20.6359Z" fill="#0047AB"/>
<path d="M55.6503 18.5941C55.4861 18.4984 55.2185 18.4971 55.0543 18.5915L53.8803 19.2638C53.7161 19.3582 53.5804 19.5896 53.5804 19.7796L53.5752 21.1307C53.5752 21.3195 53.7071 21.5535 53.8713 21.6479L55.0388 22.3279C55.203 22.4236 55.4706 22.4236 55.6348 22.3305L56.8087 21.6595C56.9729 21.5651 57.1087 21.3337 57.1087 21.1449L57.1139 19.7939C57.1139 19.6051 56.982 19.3711 56.8178 19.2767L55.6503 18.5953V18.5941ZM55.3297 21.7216C55.3297 21.026 54.7685 20.461 54.0743 20.4545C54.7685 20.4545 55.3322 19.8947 55.34 19.1991C55.34 19.8947 55.9024 20.461 56.6006 20.4649C55.9037 20.4649 55.3374 21.026 55.3297 21.7216Z" fill="#0047AB"/>
<path d="M48.1319 22.4985C47.7531 22.4985 47.32 22.2141 47.17 21.8663L39.0519 3.13223C38.9019 2.78444 39.0881 2.5 39.4669 2.5H42.6591C43.0379 2.5 43.4697 2.78444 43.6197 3.13223L48.8081 15.173C48.9581 15.5208 49.2037 15.5208 49.3524 15.173L54.5421 3.13223C54.6921 2.78444 55.1239 2.5 55.5027 2.5H59.3763C59.3763 2.5 59.3827 2.50388 59.3814 2.50646L50.9931 21.8663C50.8431 22.2141 50.41 22.4985 50.0312 22.4985H48.1332H48.1319Z" fill="#0047AB"/>
<path d="M63.3883 17.2403C63.3883 17.6192 63.6973 17.9294 64.0761 17.9282H71.8387C72.2175 17.9282 72.5278 18.2372 72.5278 18.616L72.5317 21.8081C72.5317 22.187 72.2227 22.4973 71.8439 22.4973H59.5148C59.136 22.4973 58.8257 22.1883 58.8257 21.8094V2.50129C58.8257 2.50129 58.8257 2.5 58.827 2.5H62.7031C63.0819 2.5 63.3909 2.8103 63.3909 3.18911L63.3857 17.2416L63.3883 17.2403Z" fill="#0047AB"/>
<path d="M88.2708 9.05067C86.8435 7.6259 84.8744 6.74414 82.701 6.74414C78.3491 6.74414 74.8247 10.2712 74.8247 14.6205C74.8247 16.7964 75.7065 18.7655 77.1312 20.1903C78.556 21.6151 80.5251 22.4968 82.701 22.4968C84.877 22.4968 86.8448 21.6151 88.2708 20.1903C89.6956 18.7655 90.5774 16.7964 90.5774 14.6205C90.5774 12.4445 89.6956 10.4754 88.2708 9.05067ZM85.0386 16.9593C84.4413 17.5579 83.6151 17.929 82.701 17.929C81.787 17.929 80.9608 17.5592 80.3622 16.9593C79.7636 16.3594 79.3925 15.532 79.3925 14.6205C79.3925 12.7936 80.8742 11.3145 82.701 11.3145C83.6151 11.3145 84.4413 11.6843 85.0386 12.2842C85.6372 12.8815 86.0083 13.709 86.0083 14.6218C86.0083 15.5346 85.6385 16.362 85.0386 16.9606V16.9593Z" fill="#0047AB"/>
<path d="M105.137 9.05067C103.712 7.6259 101.743 6.74414 99.5673 6.74414C95.2179 6.74414 91.6909 10.2712 91.6909 14.6205C91.6909 16.7964 92.5727 18.7655 93.9974 20.1903C95.4222 21.6151 97.3913 22.4968 99.5673 22.4968C101.743 22.4968 103.712 21.6151 105.137 20.1903C106.562 18.7655 107.444 16.7964 107.444 14.6205C107.444 12.4445 106.562 10.4754 105.137 9.05067ZM101.906 16.9593C101.307 17.5579 100.479 17.929 99.5673 17.929C98.6558 17.929 97.827 17.5592 97.2284 16.9593C96.6298 16.3594 96.2587 15.532 96.2587 14.6205C96.2587 12.7936 97.7404 11.3145 99.5673 11.3145C100.48 11.3145 101.307 11.6843 101.906 12.2842C102.505 12.8815 102.876 13.709 102.876 14.6218C102.876 15.5346 102.506 16.362 101.906 16.9606V16.9593Z" fill="#0047AB"/>
<path d="M123.115 22.4998H119.221C118.996 22.4998 118.787 22.3899 118.657 22.2063L116.604 19.2753L114.947 16.9093C114.945 16.9093 114.945 16.908 114.945 16.908C114.944 16.9042 114.94 16.9016 114.939 16.8977C114.934 16.8925 114.933 16.8874 114.929 16.8822C114.922 16.8718 114.914 16.8628 114.909 16.855C114.565 16.3547 114.097 15.9461 113.552 15.6733C113.552 15.6733 113.552 15.672 113.55 15.672C113.067 15.429 112.52 15.3604 111.939 15.3604C112.52 15.3604 113.067 15.1575 113.55 14.9157C114.08 14.6506 114.534 14.2602 114.876 13.7805C114.881 13.7753 114.885 13.7702 114.887 13.765C114.904 13.7404 114.922 13.7146 114.939 13.6887L116.603 11.3124H116.604L118.657 8.38138C118.787 8.19779 118.996 8.08789 119.221 8.08789H123.115C123.673 8.08789 123.998 8.71495 123.679 9.17134L119.667 14.9015C119.502 15.1381 119.502 15.4548 119.667 15.6914L123.679 21.419C123.998 21.8754 123.673 22.5024 123.115 22.5024V22.4998Z" fill="#0047AB"/>
<path d="M113.607 22.4979H110.419C110.038 22.4979 109.729 22.1902 109.729 21.8088V3.19497C109.729 2.81486 110.037 2.50586 110.419 2.50586H113.607C113.987 2.50586 114.296 2.81357 114.296 3.19497V11.7979C114.296 13.7877 112.682 15.4012 110.693 15.4012C112.682 15.4012 114.296 17.0148 114.296 19.0045V21.8101C114.296 22.1902 113.988 22.4992 113.607 22.4992V22.4979Z" fill="#0047AB"/>
</svg>
