<svg width="127" height="32" viewBox="0 0 127 32" fill="none" xmlns="http://www.w3.org/2000/svg">
<path d="M104.777 16.3124C104.541 15.5237 104.192 14.848 103.73 14.2825C103.269 13.7197 102.678 13.2833 101.961 12.9744C101.244 12.6681 100.413 12.5137 99.4685 12.5137C98.4432 12.5137 97.5308 12.735 96.7295 13.1768C96.0013 13.5788 95.4087 14.1126 94.9516 14.7784C94.8667 14.9013 94.7258 14.9745 94.5767 14.9745C94.5767 14.9745 94.5767 14.7306 94.5767 14.4324V13.5489C94.5767 13.2508 94.3328 13.0069 94.0347 13.0069H91.3345C91.0364 13.0069 90.7925 13.2508 90.7925 13.5489V26.6145C90.7925 26.9126 91.0364 27.1565 91.3345 27.1565H94.2813C94.5794 27.1565 94.8233 26.9126 94.8233 26.6145V21.2403C94.8233 20.9422 94.8387 20.4552 94.8577 20.1571C94.8577 20.1571 94.8992 19.5022 95.0528 18.9593C95.2091 18.4163 95.4322 17.943 95.7312 17.5446C96.0284 17.1444 96.3871 16.8273 96.8072 16.5897C97.2272 16.3539 97.715 16.2356 98.2679 16.2356C99.1921 16.2356 99.894 16.4967 100.376 17.0197C100.857 17.5437 101.03 18.8978 101.03 18.8978C101.068 19.1932 101.099 19.6792 101.099 19.9774V26.6136C101.099 26.9117 101.343 27.1556 101.641 27.1556H104.587C104.885 27.1556 105.129 26.9117 105.129 26.6136V19.485C105.129 19.1869 105.114 18.7 105.094 18.4019C105.094 18.4019 105.01 17.1019 104.775 16.3124H104.777Z" fill="#052E70"/>
<path d="M83.3387 13.0078C83.6368 13.0078 83.7976 13.2373 83.6955 13.5173L78.9157 26.647C78.8137 26.927 78.4866 27.1565 78.1885 27.1565H75.0041C74.706 27.1565 74.379 26.927 74.2769 26.647L71.6427 19.4109C71.5406 19.1309 71.4575 18.9014 71.4575 18.9014C71.4575 18.9014 71.3744 19.1309 71.2723 19.4109L68.638 26.647C68.536 26.927 68.2089 27.1565 67.9108 27.1565H64.7264C64.4283 27.1565 64.1013 26.927 63.9992 26.647L59.0352 13.0105C59.0352 13.0105 59.0352 13.0078 59.037 13.0078H62.7851C63.0832 13.0078 63.4102 13.2373 63.5123 13.5173L66.3182 21.2276C66.3182 21.2276 66.3182 21.2276 66.3191 21.2276L69.1259 13.5173C69.2279 13.2373 69.555 13.0078 69.8531 13.0078H73.0619C73.36 13.0078 73.687 13.2373 73.7891 13.5173L76.5941 21.2285L79.4026 13.5173C79.5047 13.2373 79.8318 13.0078 80.1299 13.0078H83.3369H83.3387Z" fill="#052E70"/>
<path d="M126.458 8.98618C126.458 8.98618 126.375 9.21654 126.273 9.49659L125.18 12.4985C125.077 12.7786 124.91 13.2375 124.809 13.5175L123.034 18.3957C122.932 18.6758 122.766 19.1347 122.664 19.4147L120.032 26.6436C119.93 26.9236 119.603 27.1531 119.305 27.1531H116.099C115.801 27.1531 115.474 26.9236 115.372 26.6436L109.864 11.5084C109.762 11.2284 109.922 10.9989 110.221 10.9989H113.425C113.723 10.9989 114.05 11.2284 114.152 11.5084L114.511 12.4931C114.613 12.7731 114.779 13.232 114.881 13.5121L117.516 20.7499C117.618 21.03 117.701 21.2594 117.702 21.2594C117.703 21.2594 117.787 21.03 117.889 20.7499L120.524 13.5121C120.626 13.232 120.793 12.7731 120.894 12.4931L121.986 9.49388C122.088 9.21383 122.415 8.98438 122.713 8.98438H125.915C126.213 8.98438 126.458 8.98438 126.459 8.98528L126.458 8.98618Z" fill="#052E70"/>
<path d="M88.2281 16.7695H85.2813C84.9819 16.7695 84.7393 17.0122 84.7393 17.3116V26.6127C84.7393 26.9121 84.9819 27.1547 85.2813 27.1547H88.2281C88.5274 27.1547 88.7701 26.9121 88.7701 26.6127V17.3116C88.7701 17.0122 88.5274 16.7695 88.2281 16.7695Z" fill="#052E70"/>
<path d="M86.7104 10.142C86.7104 10.142 86.7104 10.1799 86.7104 10.2269V12.376C86.7104 12.423 86.7429 12.4799 86.7836 12.5034L88.6445 13.5784C88.6852 13.6019 88.7177 13.6209 88.7177 13.6209C88.7177 13.6209 88.7511 13.6019 88.7909 13.5784L90.6518 12.5043C90.6925 12.4808 90.725 12.4239 90.725 12.377V10.2278C90.725 10.1808 90.6925 10.1239 90.6518 10.1004L88.7909 9.02543C88.7502 9.00194 88.6843 9.00194 88.6436 9.02543L86.7826 10.0995C86.742 10.123 86.7095 10.142 86.7095 10.142H86.7104Z" fill="#052E70"/>
<path d="M84.7768 11.2592C84.7361 11.2826 84.7036 11.3396 84.7036 11.3865V13.5357C84.7036 13.5826 84.7361 13.6395 84.7768 13.663L86.6377 14.738C86.6784 14.7615 86.7443 14.7615 86.785 14.738L88.6459 13.6639C88.6866 13.6404 88.7191 13.6215 88.7191 13.6215C88.7191 13.6215 88.7191 13.5835 88.7191 13.5366V11.3874C88.7191 11.3405 88.6866 11.2835 88.6459 11.2601L86.7118 10.1426L84.7768 11.2592Z" fill="url(#paint0_linear_224_269)"/>
<path d="M56.1483 27.1544C57.3842 27.1291 59.1439 26.6675 59.1439 26.6675C59.4321 26.5916 59.5848 26.3007 59.4827 26.0206L58.4736 23.25C58.3715 22.9699 58.0527 22.8055 57.7654 22.8841C57.7654 22.8841 56.8999 23.1217 56.1483 23.1217H56.1366C55.5205 23.1217 55.0209 22.6212 55.0209 22.0051V13.5477C55.0209 13.2496 55.2648 13.0057 55.5629 13.0057H59.0346C59.0346 13.0057 59.0355 13.0057 59.0355 13.0048V9.52772C59.0355 9.2296 58.7916 8.98569 58.4935 8.98569H55.5629C55.2648 8.98569 55.0209 8.74178 55.0209 8.44367V5.54203C55.0209 5.24391 54.777 5 54.4789 5H51.542C51.2439 5 51 5.24391 51 5.54203V22.053C51 22.3511 51.019 22.838 51.0416 23.1353C51.0416 23.1353 51.3559 27.2537 56.1483 27.1544Z" fill="#052E70"/>
<path d="M11.1787 6.31592C11.1787 6.31592 11.1787 6.52858 11.1787 6.78851V18.7544C11.1779 19.0143 11.3622 19.3333 11.5867 19.4633L21.949 25.447C22.1742 25.577 22.3585 25.6833 22.3585 25.6833C22.3585 25.6833 22.5428 25.577 22.7681 25.447L33.1311 19.4648C33.3564 19.3349 33.5407 19.0159 33.5407 18.756V6.79008C33.5415 6.53016 33.3572 6.21116 33.1327 6.0812L22.7697 0.0974709C22.5444 -0.0324903 22.1766 -0.0324903 21.9513 0.0974709L11.5883 6.07963C11.363 6.20959 11.1787 6.31592 11.1787 6.31592Z" fill="#052E70"/>
<path d="M0.409577 12.5341C0.184311 12.664 2.51515e-06 12.983 2.51515e-06 13.2429V25.2088C-0.000785129 25.4688 0.183524 25.7878 0.408002 25.9177L10.771 31.9014C10.9963 32.0314 11.3641 32.0314 11.5894 31.9014L21.9524 25.9193C22.1777 25.7893 22.362 25.683 22.362 25.683C22.362 25.683 22.362 25.4703 22.362 25.2104V13.2445C22.3628 12.9846 22.1785 12.6656 21.954 12.5356L11.183 6.31641C11.183 6.31641 11.1814 6.31641 11.1806 6.31641L0.409577 12.5341Z" fill="url(#paint1_linear_224_269)"/>
<defs>
<linearGradient id="paint0_linear_224_269" x1="84.7244" y1="13.6079" x2="88.6983" y2="11.3134" gradientUnits="userSpaceOnUse">
<stop stop-color="#00B2EA"/>
<stop offset="0.22" stop-color="#00B2EA" stop-opacity="0.9604"/>
<stop offset="0.45" stop-color="#00B3EB" stop-opacity="0.8464"/>
<stop offset="0.51" stop-color="#00B4EC" stop-opacity="0.9"/>
<stop offset="0.61" stop-color="#00B4EC" stop-opacity="0.7225"/>
<stop offset="0.79" stop-color="#00B7EE" stop-opacity="0.49"/>
<stop offset="1" stop-color="#00BBF2" stop-opacity="0.5"/>
</linearGradient>
<linearGradient id="paint1_linear_224_269" x1="0.119724" y1="25.6129" x2="22.2431" y2="12.8405" gradientUnits="userSpaceOnUse">
<stop stop-color="#00B2EA"/>
<stop offset="0.22" stop-color="#00B2EA" stop-opacity="0.9604"/>
<stop offset="0.45" stop-color="#00B3EB" stop-opacity="0.8464"/>
<stop offset="0.51" stop-color="#00B4EC" stop-opacity="0.9"/>
<stop offset="0.61" stop-color="#00B4EC" stop-opacity="0.7225"/>
<stop offset="0.79" stop-color="#00B7EE" stop-opacity="0.49"/>
<stop offset="1" stop-color="#00BBF2" stop-opacity="0.5"/>
</linearGradient>
</defs>
</svg>
