<svg width="123" height="26" viewBox="0 0 123 26" fill="none" xmlns="http://www.w3.org/2000/svg">
<path d="M24.1503 20.9244C23.9122 20.8 23.524 20.7984 23.2859 20.9211L21.5832 21.7951C21.345 21.9178 21.1481 22.2187 21.1481 22.4658L21.1406 24.2223C21.1406 24.4677 21.3319 24.772 21.57 24.8947L23.2634 25.7788C23.5015 25.9032 23.8897 25.9032 24.1278 25.7822L25.8305 24.9098C26.0687 24.7871 26.2656 24.4862 26.2656 24.2408L26.2731 22.4843C26.2731 22.2389 26.0818 21.9346 25.8437 21.8119L24.1503 20.9261V20.9244ZM23.6853 24.9905C23.6853 24.0862 22.8714 23.3516 21.8645 23.3432C22.8714 23.3432 23.689 22.6154 23.7003 21.7111C23.7003 22.6154 24.516 23.3516 25.5286 23.3567C24.5179 23.3567 23.6965 24.0862 23.6853 24.9905Z" fill="#013555"/>
<path d="M13.2449 26C12.6955 26 12.0673 25.6302 11.8498 25.178L0.0752806 0.821955C-0.142244 0.369796 0.127787 0 0.677225 0H5.30713C5.85657 0 6.48289 0.369796 6.70041 0.821955L14.2257 16.4761C14.4432 16.9282 14.7995 16.9282 15.0151 16.4761L22.5422 0.821955C22.7598 0.369796 23.3861 0 23.9355 0H29.5537C29.5537 0 29.563 0.00504267 29.5612 0.00840445L17.3948 25.178C17.1772 25.6302 16.549 26 15.9996 26H13.2468H13.2449Z" fill="#013555"/>
<path d="M35.3725 19.1638C35.3725 19.6563 35.8207 20.0597 36.3701 20.0581H47.6289C48.1784 20.0581 48.6284 20.4598 48.6284 20.9523L48.634 25.1024C48.634 25.5949 48.1859 25.9983 47.6364 25.9983H29.7544C29.2049 25.9983 28.7549 25.5966 28.7549 25.1041V0.00168089C28.7549 0.00168089 28.7549 0 28.7568 0H34.3787C34.9281 0 35.3763 0.403413 35.3763 0.895914L35.3688 19.1655L35.3725 19.1638Z" fill="#013555"/>
<path d="M71.4622 8.51628C69.392 6.66394 66.536 5.51758 63.3838 5.51758C57.0718 5.51758 51.96 10.103 51.96 15.7576C51.96 18.5865 53.2389 21.1465 55.3053 22.9988C57.3718 24.8512 60.2278 25.9975 63.3838 25.9975C66.5398 25.9975 69.3938 24.8512 71.4622 22.9988C73.5287 21.1465 74.8076 18.5865 74.8076 15.7576C74.8076 12.9286 73.5287 10.3686 71.4622 8.51628ZM66.7742 18.7983C65.9078 19.5765 64.7095 20.059 63.3838 20.059C62.058 20.059 60.8597 19.5782 59.9915 18.7983C59.1233 18.0184 58.5851 16.9426 58.5851 15.7576C58.5851 13.3825 60.7341 11.4595 63.3838 11.4595C64.7095 11.4595 65.9078 11.9403 66.7742 12.7202C67.6424 13.4968 68.1806 14.5725 68.1806 15.7592C68.1806 16.9459 67.6443 18.0217 66.7742 18.8V18.7983Z" fill="#013555"/>
<path d="M95.9261 8.51628C93.8596 6.66394 91.0036 5.51758 87.8476 5.51758C81.5394 5.51758 76.4238 10.103 76.4238 15.7576C76.4238 18.5865 77.7027 21.1465 79.7692 22.9988C81.8357 24.8512 84.6916 25.9975 87.8476 25.9975C91.0036 25.9975 93.8596 24.8512 95.9261 22.9988C97.9925 21.1465 99.2714 18.5865 99.2714 15.7576C99.2714 12.9286 97.9925 10.3686 95.9261 8.51628ZM91.2399 18.7983C90.3717 19.5765 89.1697 20.059 87.8476 20.059C86.5256 20.059 85.3236 19.5782 84.4554 18.7983C83.5871 18.0184 83.049 16.9426 83.049 15.7576C83.049 13.3825 85.198 11.4595 87.8476 11.4595C89.1715 11.4595 90.3717 11.9403 91.2399 12.7202C92.1081 13.4968 92.6463 14.5725 92.6463 15.7592C92.6463 16.9459 92.11 18.0217 91.2399 18.8V18.7983Z" fill="#013555"/>
<path d="M122 25.9947H116.352C116.026 25.9947 115.722 25.8518 115.535 25.6131L112.557 21.8025L110.153 18.7265C110.151 18.7265 110.151 18.7248 110.151 18.7248C110.149 18.7198 110.143 18.7164 110.142 18.7114C110.134 18.7047 110.132 18.6979 110.127 18.6912C110.117 18.6778 110.106 18.666 110.098 18.6559C109.6 18.0054 108.921 17.4743 108.129 17.1196C108.129 17.1196 108.129 17.1179 108.128 17.1179C107.426 16.8019 106.633 16.7128 105.791 16.7128C106.633 16.7128 107.426 16.4489 108.128 16.1346C108.896 15.79 109.555 15.2824 110.05 14.6588C110.057 14.652 110.063 14.6453 110.067 14.6386C110.091 14.6067 110.117 14.573 110.142 14.5394L112.555 11.4499H112.557L115.535 7.63937C115.722 7.40069 116.026 7.25781 116.352 7.25781H122C122.809 7.25781 123.281 8.07304 122.818 8.6664L116.999 16.1161C116.759 16.4237 116.759 16.8355 116.999 17.1431L122.818 24.5895C123.281 25.1828 122.809 25.998 122 25.998V25.9947Z" fill="#013555"/>
<path d="M108.21 25.9975H103.585C103.034 25.9975 102.586 25.5974 102.586 25.1015V0.901773C102.586 0.407592 103.032 0.00585938 103.585 0.00585938H108.21C108.761 0.00585938 109.209 0.405911 109.209 0.901773V12.0864C109.209 14.6733 106.869 16.7711 103.983 16.7711C106.869 16.7711 109.209 18.8688 109.209 21.4557V25.1032C109.209 25.5974 108.763 25.9991 108.21 25.9991V25.9975Z" fill="#013555"/>
</svg>
