<svg width="156" height="40" viewBox="0 0 156 40" fill="none" xmlns="http://www.w3.org/2000/svg">
<path d="M140.796 19.2012C141.441 19.2012 141.97 19.4695 142.383 20.0061L155.575 36.4883C155.859 36.8205 156.001 37.2038 156.001 37.6382C156.001 38.1493 155.794 38.5965 155.382 38.9798C154.969 39.3631 154.518 39.5548 154.028 39.5548C153.409 39.5548 152.88 39.2865 152.441 38.7498L139.249 22.2676C138.965 21.9354 138.823 21.5521 138.823 21.1177C138.823 20.5811 139.017 20.1339 139.404 19.7761C139.816 19.3928 140.28 19.2012 140.796 19.2012ZM140.835 39.5548C140.397 39.5548 139.971 39.3887 139.558 39.0565C139.146 38.7243 138.939 38.3154 138.939 37.8299C138.939 37.3955 139.094 36.9994 139.404 36.6416L145.555 29.0905L147.528 32.2336L142.383 38.7498C141.97 39.2865 141.454 39.5548 140.835 39.5548ZM153.989 19.2012C154.531 19.2012 154.969 19.38 155.304 19.7378C155.665 20.07 155.846 20.4661 155.846 20.9261C155.846 21.1305 155.807 21.3477 155.73 21.5777C155.678 21.7821 155.562 21.9738 155.382 22.1526L149.308 29.7038L147.296 26.8673L152.441 20.0828C152.88 19.495 153.396 19.2012 153.989 19.2012Z" fill="#013555"/>
<path d="M135.515 37.5229C135.515 38.0851 135.334 38.5578 134.973 38.9411C134.612 39.2989 134.148 39.4777 133.581 39.4777C133.039 39.4777 132.575 39.2989 132.188 38.9411C131.827 38.5578 131.646 38.0851 131.646 37.5229V21.1173C131.646 20.5551 131.827 20.0952 132.188 19.7374C132.575 19.3541 133.039 19.1625 133.581 19.1625C134.148 19.1625 134.612 19.3541 134.973 19.7374C135.334 20.0952 135.515 20.5551 135.515 21.1173V37.5229ZM133.542 16.6326C132.794 16.6326 132.252 16.5049 131.917 16.2493C131.582 15.9682 131.414 15.5083 131.414 14.8694V14.2561C131.414 13.6173 131.595 13.1701 131.956 12.9146C132.317 12.659 132.858 12.5312 133.581 12.5312C134.354 12.5312 134.909 12.6718 135.244 12.9529C135.579 13.2084 135.747 13.6428 135.747 14.2561V14.8694C135.747 15.5338 135.567 15.9938 135.205 16.2493C134.87 16.5049 134.316 16.6326 133.542 16.6326Z" fill="#013555"/>
<path d="M119.543 18.8555C121.374 18.8555 122.793 19.2388 123.799 20.0054C124.805 20.7465 125.501 21.7558 125.888 23.0335C126.3 24.2857 126.507 25.6911 126.507 27.2499V37.5225C126.507 38.0847 126.313 38.5575 125.927 38.9408C125.565 39.2985 125.114 39.4774 124.572 39.4774C124.005 39.4774 123.541 39.2985 123.18 38.9408C122.819 38.5575 122.638 38.0847 122.638 37.5225V27.2882C122.638 26.3683 122.509 25.5506 122.251 24.8351C121.993 24.094 121.542 23.5063 120.897 23.0718C120.278 22.6119 119.401 22.3819 118.266 22.3819C117.209 22.3819 116.28 22.6119 115.481 23.0718C114.681 23.5063 114.049 24.094 113.585 24.8351C113.147 25.5506 112.927 26.3683 112.927 27.2882V37.5225C112.927 38.0847 112.734 38.5575 112.347 38.9408C111.986 39.2985 111.535 39.4774 110.993 39.4774C110.426 39.4774 109.961 39.2985 109.6 38.9408C109.239 38.5575 109.059 38.0847 109.059 37.5225V21.2703C109.059 20.7081 109.239 20.2482 109.6 19.8904C109.961 19.5071 110.426 19.3154 110.993 19.3154C111.535 19.3154 111.986 19.5071 112.347 19.8904C112.734 20.2482 112.927 20.7081 112.927 21.2703V23.4168L112.231 23.8001C112.412 23.2379 112.721 22.6758 113.16 22.1136C113.624 21.5258 114.178 20.9892 114.823 20.5037C115.468 19.9926 116.19 19.5965 116.99 19.3154C117.789 19.0088 118.64 18.8555 119.543 18.8555Z" fill="#013555"/>
<path d="M96.0192 39.8607C93.8785 39.8607 92.0215 39.4263 90.4481 38.5575C88.8748 37.6631 87.6497 36.4493 86.7728 34.916C85.9217 33.3573 85.4961 31.5813 85.4961 29.5881C85.4961 27.3393 85.9475 25.4228 86.8502 23.8385C87.7787 22.2286 88.978 21.002 90.4481 20.1587C91.9183 19.2899 93.4787 18.8555 95.1294 18.8555C96.3932 18.8555 97.5925 19.111 98.7274 19.6221C99.8622 20.1076 100.868 20.7976 101.745 21.6919C102.648 22.5608 103.357 23.5957 103.873 24.7967C104.389 25.9722 104.659 27.2627 104.685 28.6681C104.659 29.1792 104.453 29.6008 104.066 29.933C103.679 30.2652 103.228 30.4313 102.712 30.4313H87.6626L86.7341 27.1732H101.281L100.546 27.8632V26.9049C100.494 26.0105 100.197 25.2311 99.6559 24.5667C99.1142 23.8768 98.4436 23.3529 97.6441 22.9952C96.8445 22.6119 96.0063 22.4202 95.1294 22.4202C94.3556 22.4202 93.6077 22.548 92.8855 22.8035C92.1891 23.0335 91.5572 23.4168 90.9898 23.9535C90.4481 24.4901 90.0097 25.2056 89.6744 26.1C89.3649 26.9688 89.2101 28.0548 89.2101 29.3581C89.2101 30.7635 89.5067 31.9901 90.1 33.0378C90.6932 34.0855 91.4927 34.9033 92.4986 35.491C93.5045 36.0532 94.6135 36.3343 95.8258 36.3343C96.7801 36.3343 97.5667 36.2448 98.1857 36.066C98.8047 35.8615 99.3206 35.6188 99.7332 35.3377C100.146 35.0566 100.507 34.7883 100.817 34.5327C101.203 34.3027 101.59 34.1878 101.977 34.1878C102.441 34.1878 102.828 34.3539 103.138 34.6861C103.447 34.9927 103.602 35.3632 103.602 35.7976C103.602 36.3598 103.318 36.8709 102.751 37.3309C102.055 37.9953 101.087 38.583 99.8493 39.0941C98.6371 39.6052 97.3604 39.8607 96.0192 39.8607Z" fill="#013555"/>
<path d="M80.4055 12.6465C80.8955 12.6465 81.3598 12.8254 81.7982 13.1831C82.2625 13.5153 82.4946 13.9625 82.4946 14.5247C82.4946 14.9336 82.3528 15.3424 82.0691 15.7513L66.3231 36.0282L65.9749 35.7982H80.1347C80.6763 35.7982 81.1277 35.9643 81.4887 36.2965C81.8756 36.6287 82.0691 37.0759 82.0691 37.6381C82.0691 38.1492 81.8756 38.5836 81.4887 38.9414C81.1277 39.2991 80.6763 39.478 80.1347 39.478H62.6091C62.0416 39.478 61.5516 39.2863 61.1389 38.903C60.752 38.4942 60.5586 38.047 60.5586 37.5614C60.5586 37.1526 60.7133 36.7565 61.0228 36.3732L76.7688 16.0963L77.0783 16.3262H63.9631C63.4215 16.3262 62.9572 16.1601 62.5704 15.8279C62.2093 15.4702 62.0287 15.0102 62.0287 14.448C62.0287 13.9114 62.2093 13.477 62.5704 13.1448C62.9572 12.8126 63.4215 12.6465 63.9631 12.6465H80.4055Z" fill="#013555"/>
<path fill-rule="evenodd" clip-rule="evenodd" d="M51.2268 4.53053C50.994 2.68488 49.2245 0.963446 48.4161 0.17692C48.3486 0.111277 48.2878 0.0521471 48.2352 0C54.7001 2.65583 54.5424 7.4988 53.754 11.4044C53.3538 13.3872 52.2209 15.182 50.9549 16.7277C52.3866 17.9628 54.5779 20.1863 55.3308 24.2149C56.1193 28.433 55.8039 31.4012 53.9117 33.9008C52.0196 36.4004 48.2352 37.9627 43.8202 36.7129C40.0715 35.6517 38.4063 34.4929 36.7245 33.2759C36.4255 33.0596 35.0968 31.9593 34.8668 31.8021L35.3087 31.4535C35.195 31.5453 35.0803 31.6322 34.9788 31.7137C34.6469 31.9603 34.1133 32.3628 33.6023 32.7434L33.598 32.7466C33.1396 33.088 32.7054 33.4113 32.4671 33.5884C31.9626 33.9633 28.2098 36.4785 26.1599 37.494C24.3729 38.3793 19.6004 40.1186 14.8069 39.9936C8.81503 39.8374 4.39563 36.7129 1.71506 32.651C-0.965513 28.5892 -0.140993 22.0277 1.71506 19.3719C3.13433 17.3411 6.2878 14.3727 11.8066 14.2165C16.2217 14.0915 20.1637 16.664 21.5828 17.9659L34.6703 27.4956C35.1434 27.1832 36.2471 26.4333 36.8779 25.9334C37.5086 25.4334 39.9789 23.3296 41.1353 22.3402L45.235 18.4346C44.8145 18.1742 43.6266 17.5909 42.239 17.341C40.8514 17.091 38.6124 17.6534 37.6663 17.9659C38.1393 17.341 39.6846 15.9037 42.0813 15.1538C44.4781 14.4039 46.9694 14.9455 47.9155 15.3101C48.0965 15.0411 48.4194 14.6113 48.6995 14.2386C48.9075 13.9618 49.0918 13.7164 49.177 13.5916C49.4967 13.1229 50.4849 11.396 50.9158 9.84218C51.4715 7.83862 51.4791 6.53021 51.2268 4.53053ZM37.5957 29.582C39.2613 30.6963 42.771 32.9405 44.1355 33.4322C45.87 34.0571 48.5506 34.0571 49.6543 31.4012C50.7581 28.7454 50.1274 25.6209 49.6543 24.2149C49.2759 23.0901 48.025 21.2466 47.4468 20.4655L47.4803 20.426C47.4676 20.4392 47.455 20.4524 47.4425 20.4655L43.0274 24.8398C41.8605 25.9959 39.5739 27.9431 37.5957 29.582ZM16.0686 19.0594C17.4877 19.6844 31.679 29.6828 31.679 29.6828C31.679 29.6828 19.9547 37.7742 11.8066 33.5884C7.5492 31.4013 4.40023 24.9961 7.55384 21.2467C10.7075 17.4973 14.6495 18.4344 16.0686 19.0594Z" fill="#013555"/>
<ellipse cx="44.4507" cy="7.65557" rx="4.25738" ry="4.21807" fill="#013555"/>
</svg>
